<svg width="40.000000" height="40.000000" viewBox="0 0 40 40" fill="none" xmlns="http://www.w3.org/2000/svg" xmlns:xlink="http://www.w3.org/1999/xlink">
	<desc>
			Created with Pixso.
	</desc>
	<defs>
		<clipPath id="clip169_3984">
			<rect id="Asset 1" width="40.000000" height="40.000000" fill="white" fill-opacity="0"/>
		</clipPath>
	</defs>
	<rect id="Asset 1" width="40.000000" height="40.000000" fill="#FFFFFF" fill-opacity="0"/>
	<g clip-path="url(#clip169_3984)">
		<path id="Vector" d="M40 20C40 22.0892 39.6826 24.1056 39.0862 25.9974C38.1768 28.8889 36.6323 31.4972 34.6118 33.655C34.5688 33.7065 34.5259 33.7538 34.4788 33.8009L34.4273 33.8524C34.3844 33.8997 34.3372 33.9468 34.2943 33.9897C33.0931 35.2167 31.7332 36.2935 30.2445 37.1771C27.2501 38.9705 23.7452 40 20 40C19.2364 40 18.4771 39.9572 17.7349 39.8756C17.6319 39.8671 17.5333 39.8541 17.4346 39.8413C17.426 39.837 17.4217 39.837 17.4131 39.837C16.465 39.7125 15.5384 39.5238 14.6375 39.2708C13.5779 38.979 12.5526 38.5972 11.5744 38.1425C11.4243 38.0737 11.2741 38.0009 11.124 37.928C10.1588 37.4518 9.24066 36.8983 8.37836 36.2762C7.51178 35.6586 6.69672 34.9722 5.94165 34.2213C5.13086 33.4235 4.38867 32.5482 3.72803 31.6216C3.565 31.39 3.40198 31.1583 3.24756 30.9181C2.86145 30.3346 2.50964 29.7297 2.1922 29.1077C0.789368 26.375 0 23.2819 0 20C0 8.95325 8.95325 0 20 0C31.0468 0 40 8.95325 40 20Z" fill="#EDDDD6" fill-opacity="1.000000" fill-rule="nonzero"/>
		<path id="Vector" d="M15.6929 10.866C15.6929 10.866 8.87177 13.4742 8.52429 21.192C8.02234 32.3461 21.39 29.7592 21.39 29.7592C21.39 29.7592 28.9619 30.5442 31.0554 24.9629C33.1489 19.3816 26.4179 16.0096 26.4179 16.0096C26.4179 16.0096 18.254 8.82397 15.6886 10.8617L15.6929 10.866Z" fill="#1C1F20" fill-opacity="1.000000" fill-rule="nonzero"/>
		<path id="Vector" d="M34.4273 33.8524C34.3844 33.8997 34.3372 33.9469 34.2943 33.9897C33.1489 35.1566 31.8619 36.1906 30.4547 37.0485C30.3861 37.0914 30.3132 37.1343 30.2445 37.1772C30.1544 37.233 30.0601 37.2888 29.9657 37.3402C27.0356 39.0348 23.6293 40 20 40C19.2364 40 18.4771 39.9572 17.7349 39.8756C17.6319 39.8671 17.5333 39.8541 17.4346 39.8413C17.426 39.837 17.4217 39.837 17.4131 39.837C16.465 39.7126 15.5384 39.5238 14.6375 39.2708C13.5779 38.979 12.5526 38.5972 11.5744 38.1425C11.4243 38.0739 11.2741 38.0009 11.124 37.928C10.1588 37.4518 9.24066 36.8983 8.37836 36.2764C7.51178 35.6586 6.69672 34.9722 5.94165 34.2214C7.39166 30.2102 11.1025 22.7328 18.8846 21.5144C18.9017 21.5144 18.9189 21.5101 18.9361 21.5059C19.4551 21.4286 19.9957 21.3771 20.5534 21.3557C29.3307 21.0339 33.0502 29.3008 34.4273 33.8524Z" fill="#7C6053" fill-opacity="1.000000" fill-rule="nonzero"/>
		<path id="Vector" d="M30.2446 37.1766C27.2501 38.9698 23.7452 39.9995 20.0001 39.9995C19.2365 39.9995 18.4771 39.9565 17.7349 39.8751C17.632 39.8665 17.5333 39.8536 17.4346 39.8407C17.426 39.8364 17.4218 39.8364 17.4131 39.8364C16.4651 39.712 15.5385 39.5233 14.6375 39.2701C13.5779 38.9785 12.5526 38.5967 11.5745 38.142C11.4243 38.0732 11.2742 38.0004 11.124 37.9274C10.1588 37.4512 9.24072 36.8978 8.37842 36.2758C8.33978 33.3285 8.31836 31.0033 8.31836 31.0033L15.9374 25.3491L19.6783 22.5735C19.7255 22.5735 19.7726 22.5735 19.8199 22.5778C21.8791 22.6207 23.6165 23.0411 24.985 23.5474C25.2038 23.6331 25.414 23.7146 25.6157 23.8004C27.5161 24.6069 28.5457 25.5121 28.5457 25.5121C28.5457 25.5121 29.438 31.4238 30.2446 37.1766Z" fill="#7C6053" fill-opacity="1.000000" fill-rule="nonzero"/>
		<path id="Vector" d="M24.7576 23.5741C24.7576 23.5741 24.1184 24.0846 22.2566 24.0073C19.7555 23.9044 18.9532 22.5487 18.9532 22.5487L18.8289 17.7526L18.8289 17.7053L19.5882 17.8555L24.3544 18.7435L24.5389 20.9399L24.7576 23.5741Z" fill="#FCA397" fill-opacity="1.000000" fill-rule="nonzero"/>
		<path id="Vector" d="M24.5389 20.9403C23.2604 20.8245 19.9529 20.0522 18.9104 17.9458C18.8804 17.8772 18.8503 17.8129 18.8289 17.7528C18.7946 17.667 18.7731 17.5854 18.7645 17.5168L24.3544 18.7438L24.5389 20.9403Z" fill="#1C1F20" fill-opacity="1.000000" fill-rule="nonzero"/>
		<path id="Vector" d="M24.9764 8.46008C24.9764 8.46008 27.5461 14.0071 26.731 17.1731C25.9159 20.3391 23.0416 19.9059 21.3127 19.3353C19.5839 18.7646 18.7645 17.7308 18.7645 17.7308C18.7645 17.7308 17.1729 18.3099 16.0703 16.8428C14.9678 15.3756 15.5898 13.651 16.4951 13.2391C17.4003 12.8274 18.5027 13.4623 18.5027 13.4623L17.6147 11.8535C17.6147 11.8535 21.021 3.50085 24.9764 8.46008Z" fill="#FCA397" fill-opacity="1.000000" fill-rule="nonzero"/>
		<path id="Vector" d="M25.8045 10.7631C25.8045 10.7631 25.7831 10.7631 25.7745 10.7631L24.6762 10.6001C24.5604 10.5829 24.4789 10.4757 24.496 10.3556C24.5132 10.2397 24.6205 10.1582 24.7406 10.1754L25.8388 10.3384C25.9547 10.3556 26.0362 10.4628 26.019 10.5829C26.0018 10.6902 25.9117 10.7675 25.8088 10.7675L25.8045 10.7631Z" fill="#1C1F20" fill-opacity="1.000000" fill-rule="nonzero"/>
		<path id="Vector" d="M21.7117 11.2184C21.6259 11.2184 21.5486 11.1669 21.5143 11.0854C21.4671 10.9781 21.5186 10.8495 21.6301 10.8065L22.9043 10.2703C23.0115 10.2231 23.1403 10.2745 23.1831 10.3861C23.2303 10.4934 23.1788 10.6221 23.0673 10.665L21.7932 11.2013C21.7675 11.2141 21.7374 11.2184 21.7117 11.2184Z" fill="#1C1F20" fill-opacity="1.000000" fill-rule="nonzero"/>
		<path id="Vector" d="M24.9421 15.3153C24.9421 15.3153 24.9293 15.3153 24.9207 15.3153C24.8049 15.3024 24.7148 15.1995 24.7277 15.0793C24.9035 13.3462 24.1871 12.4753 24.1785 12.4667C24.1013 12.3766 24.1141 12.2394 24.2042 12.1664C24.2943 12.0892 24.4273 12.0978 24.5046 12.1879C24.5389 12.2264 25.3497 13.196 25.1566 15.1222C25.1437 15.2338 25.0536 15.3153 24.9421 15.3153Z" fill="#1C1F20" fill-opacity="1.000000" fill-rule="nonzero"/>
		<path id="Vector" d="M23.1918 17.1898C23.106 17.1898 23.0202 17.1769 22.9258 17.1511C22.218 16.9496 22.1365 16.1344 22.1365 16.1001C22.1321 16.0315 22.1579 15.9628 22.2094 15.9156C22.2609 15.8684 22.3338 15.8556 22.4024 15.8727L24.067 16.3018C24.1356 16.3188 24.1913 16.3704 24.2171 16.439C24.2429 16.5077 24.23 16.5806 24.1871 16.6406C24.1699 16.6664 23.7667 17.1854 23.1961 17.1854L23.1918 17.1898ZM22.6555 16.3833C22.7242 16.5291 22.8443 16.6792 23.046 16.7393C23.2476 16.795 23.4363 16.7222 23.5822 16.6235L22.6555 16.3833Z" fill="#1C1F20" fill-opacity="1.000000" fill-rule="nonzero"/>
		<path id="Vector" d="M18.5114 15.7787C18.4813 15.7787 18.4513 15.7744 18.4213 15.7615L16.1605 14.7362C16.0532 14.689 16.006 14.5603 16.0532 14.453C16.1004 14.3458 16.2291 14.2986 16.3363 14.3458L18.5972 15.3711C18.7044 15.4183 18.7516 15.547 18.7044 15.6543C18.6701 15.7314 18.5886 15.7787 18.5071 15.7787L18.5114 15.7787Z" fill="#1C1F20" fill-opacity="1.000000" fill-rule="nonzero"/>
		<path id="Vector" d="M16.4994 16.2977C16.4436 16.2977 16.3878 16.2762 16.345 16.2334C16.2634 16.1476 16.2634 16.0146 16.345 15.9288L17.3402 14.9464C17.426 14.8649 17.559 14.8649 17.6448 14.9464C17.7263 15.0322 17.7263 15.1652 17.6448 15.251L16.6495 16.2334C16.6066 16.2762 16.5552 16.2935 16.4994 16.2935L16.4994 16.2977Z" fill="#1C1F20" fill-opacity="1.000000" fill-rule="nonzero"/>
		<path id="Vector" d="M21.7117 8.78589C21.7117 8.78589 22.9987 8.5929 24.3414 9.40369C25.6842 10.2145 25.9587 11.0039 25.9587 11.0039C25.9587 11.0039 26.7867 8.91028 24.9678 7.06128C23.1488 5.2124 19.6567 4.70178 17.6447 6.8855C15.6327 9.07336 15.7571 11.0039 15.7571 11.0039L18.5027 13.462C18.5027 13.462 22.7413 12.647 21.7117 8.78589Z" fill="#1C1F20" fill-opacity="1.000000" fill-rule="nonzero"/>
		<path id="Vector" d="M17.16 7.82446C17.16 7.82446 14.5689 2.90808 11.9477 4.9845C9.3222 7.06079 12.2437 11.2565 14.8521 11.561C17.4603 11.8656 17.16 7.82446 17.16 7.82446Z" fill="#1C1F20" fill-opacity="1.000000" fill-rule="nonzero"/>
		<path id="Vector" d="M17.735 39.875C17.632 39.8665 17.5333 39.8536 17.4346 39.8407C17.4261 39.8364 17.4218 39.8364 17.4132 39.8364C16.4651 39.712 15.5385 39.5233 14.6376 39.2701L15.9374 25.3491L15.9803 24.9072L18.8847 21.5138L18.919 21.4752C18.919 21.4752 18.9233 21.4838 18.9362 21.5052C19.0091 21.6211 19.3094 22.0844 19.8199 22.5778C20.798 23.5259 22.5569 24.594 24.9765 23.5516C25.3754 23.38 25.5728 23.4829 25.6157 23.8004C25.8387 25.5508 21.2142 33.8948 17.735 39.875Z" fill="#7C6053" fill-opacity="1.000000" fill-rule="nonzero"/>
		<path id="Vector" d="M30.4548 37.0487C30.3862 37.0916 30.3132 37.1345 30.2446 37.1774C30.1545 37.2332 30.0601 37.2889 29.9658 37.3403C30.8967 32.4799 28.9919 29.6956 28.9705 29.6655C28.9018 29.5669 28.919 29.4253 29.0134 29.3524C29.1121 29.2794 29.245 29.3009 29.3137 29.3995C29.3995 29.5197 31.2614 32.2224 30.4548 37.0487Z" fill="#FCB35B" fill-opacity="1.000000" fill-rule="nonzero"/>
		<path id="Vector" d="M22.9815 24.1907C20.1844 24.1907 18.7516 21.608 18.7344 21.578C18.6786 21.4751 18.7172 21.342 18.8202 21.2863C18.9232 21.2305 19.0562 21.2692 19.1119 21.3721C19.1891 21.5179 21.0939 24.9242 24.8992 23.3497C25.0064 23.3026 25.1351 23.3584 25.178 23.4656C25.2252 23.5729 25.1694 23.7015 25.0622 23.7445C24.3029 24.0619 23.6078 24.1907 22.9815 24.1907Z" fill="#FCB35B" fill-opacity="1.000000" fill-rule="nonzero"/>
		<path id="Vector" d="M18.8589 17.5157C18.8589 17.8451 18.5919 18.1121 18.2626 18.1121C17.9332 18.1121 17.6663 17.8451 17.6663 17.5157C17.6663 17.1864 17.9332 16.9194 18.2626 16.9194C18.5919 16.9194 18.8589 17.1864 18.8589 17.5157Z" fill="#7772D3" fill-opacity="1.000000" fill-rule="evenodd"/>
		<path id="Vector" d="M22.3508 13.5258C22.2307 13.5258 22.1364 13.4314 22.1364 13.3113L22.1364 12.3246C22.1364 12.2688 22.1578 12.213 22.1964 12.1744L22.634 11.7325C22.7155 11.6467 22.8528 11.6467 22.9386 11.7325C23.0244 11.8141 23.0244 11.9513 22.9386 12.0371L22.5654 12.4189L22.5654 13.3156C22.5654 13.4357 22.4709 13.53 22.3508 13.53L22.3508 13.5258Z" fill="#1C1F20" fill-opacity="1.000000" fill-rule="nonzero"/>
		<path id="Vector" d="M25.5856 13.5258C25.4655 13.5258 25.3711 13.4314 25.3711 13.3113L25.3711 12.3246C25.3711 12.2688 25.3925 12.213 25.4312 12.1744L25.8687 11.7325C25.9503 11.6467 26.0875 11.6467 26.1733 11.7325C26.2591 11.8141 26.2591 11.9513 26.1733 12.0371L25.8001 12.4189L25.8001 13.3156C25.8001 13.4357 25.7057 13.53 25.5856 13.53L25.5856 13.5258Z" fill="#1C1F20" fill-opacity="1.000000" fill-rule="nonzero"/>
	</g>
</svg>
