<svg width="25.000000" height="25.000000" viewBox="0 0 25 25" fill="none" xmlns="http://www.w3.org/2000/svg" xmlns:xlink="http://www.w3.org/1999/xlink">
	<desc>
			Created with Pixso.
	</desc>
	<defs>
		<clipPath id="clip169_4033">
			<rect id="bell" width="25.000000" height="25.000000" fill="white" fill-opacity="0"/>
		</clipPath>
	</defs>
	<rect id="bell" width="25.000000" height="25.000000" fill="#FFFFFF" fill-opacity="0"/>
	<g clip-path="url(#clip169_4033)">
		<path id="Vector" d="M8.08057 3.91394C9.25269 2.74182 10.8424 2.08337 12.5 2.08337C14.1576 2.08337 15.7473 2.74182 16.9194 3.91394C18.0916 5.08606 18.75 6.67578 18.75 8.33337C18.75 15.625 21.875 17.7084 21.875 17.7084L3.125 17.7084C3.125 17.7084 6.25 15.625 6.25 8.33337C6.25 6.67578 6.90845 5.08606 8.08057 3.91394Z" stroke="#7F6CFE" stroke-opacity="1.000000" stroke-width="2.000000" stroke-linejoin="round"/>
		<path id="Vector" d="M10.7292 21.875C10.9036 22.1921 11.1599 22.4567 11.4714 22.6409C11.783 22.8251 12.1382 22.9222 12.5001 22.9222C12.8619 22.9222 13.2173 22.8251 13.5287 22.6409C13.8402 22.4567 14.0966 22.1921 14.2709 21.875" stroke="#7F6CFE" stroke-opacity="1.000000" stroke-width="2.000000" stroke-linejoin="round" stroke-linecap="round"/>
	</g>
</svg>
