<svg width="30" height="30" viewBox="0 0 30 30" fill="none" xmlns="http://www.w3.org/2000/svg">
<rect width="30" height="30" rx="15" fill="#7F6CFE"/>
<g clip-path="url(#clip0_153_5639)">
<path d="M18.625 8.87503C18.7842 8.68693 18.9811 8.53382 19.2031 8.42546C19.4252 8.3171 19.6676 8.25587 19.9148 8.24567C20.162 8.23547 20.4086 8.27652 20.639 8.36621C20.8693 8.4559 21.0784 8.59227 21.2527 8.76661C21.427 8.94095 21.5629 9.14945 21.6516 9.37881C21.7403 9.60817 21.7799 9.85337 21.7679 10.0988C21.7559 10.3442 21.6925 10.5844 21.5818 10.8041C21.4711 11.0239 21.3155 11.2183 21.125 11.375L12.6875 19.8125L9.25 20.75L10.1875 17.3125L18.625 8.87503Z" stroke="white" stroke-linecap="round" stroke-linejoin="round"/>
<path d="M17.375 10.125L19.875 12.625" stroke="white" stroke-linecap="round" stroke-linejoin="round"/>
</g>
<defs>
<clipPath id="clip0_153_5639">
<rect width="15" height="15" fill="white" transform="translate(8 7)"/>
</clipPath>
</defs>
</svg>
