<svg width="25.000000" height="25.000000" viewBox="0 0 25 25" fill="none" xmlns="http://www.w3.org/2000/svg" xmlns:xlink="http://www.w3.org/1999/xlink">
	<desc>
			Created with Pixso.
	</desc>
	<defs>
		<clipPath id="clip4_10010">
			<rect id="beef" width="15.000000" height="15.000000" transform="translate(5.000000 5.000000)" fill="white" fill-opacity="0"/>
		</clipPath>
	</defs>
	<rect id="size=S, state=defoult, type=Продукты" rx="12.500000" width="25.000000" height="25.000000" fill="#C7497E" fill-opacity="1.000000"/>
	<rect id="beef" width="15.000000" height="15.000000" transform="translate(5.000000 5.000000)" fill="#FFFFFF" fill-opacity="0"/>
	<g clip-path="url(#clip4_10010)">
		<path id="Vector" d="M12.8125 11.875C11.9496 11.875 11.25 11.1754 11.25 10.3125C11.25 9.44958 11.9496 8.75 12.8125 8.75C13.6754 8.75 14.375 9.44958 14.375 10.3125C14.375 11.1754 13.6754 11.875 12.8125 11.875Z" stroke="#FFFFFF" stroke-opacity="1.000000" stroke-width="1.000000" stroke-linejoin="round"/>
		<path id="Vector" d="M10.3944 7.04614C9.69458 7.56384 9.17944 8.29248 8.92493 9.125C8.23743 11.0813 8.4375 11.5625 6.9375 12.925C6.63855 13.17 6.42273 13.5015 6.31946 13.8739C6.21606 14.2463 6.23047 14.6416 6.36047 15.0056C6.49048 15.3696 6.72974 15.6846 7.04565 15.9073C7.36145 16.13 7.73853 16.2498 8.125 16.25C10.625 16.25 13.375 15.125 15.25 13.5625C15.9321 13.0509 16.4359 12.3376 16.6902 11.5238C16.9445 10.71 16.9362 9.83667 16.6665 9.02783C16.3969 8.21887 15.8795 7.51538 15.1879 7.01685C14.4961 6.51831 13.6652 6.25 12.8125 6.25C11.942 6.24951 11.0944 6.52856 10.3944 7.04614Z" stroke="#FFFFFF" stroke-opacity="1.000000" stroke-width="1.000000" stroke-linejoin="round"/>
		<path id="Vector" d="M16.5625 8.75L17.9313 11.5625C18.0609 11.9664 18.1263 12.3883 18.125 12.8125C18.1255 13.4432 17.9789 14.0654 17.6968 14.6296C17.4147 15.1938 17.0049 15.6844 16.5 16.0625C14.625 17.625 11.875 18.75 9.375 18.75C9.02698 18.7495 8.68604 18.6522 8.39026 18.469C8.09436 18.2858 7.85547 18.0238 7.69995 17.7125L6.5 15.3125" stroke="#FFFFFF" stroke-opacity="1.000000" stroke-width="1.000000" stroke-linejoin="round" stroke-linecap="round"/>
	</g>
</svg>
