<svg width="25.000000" height="25.000000" viewBox="0 0 25 25" fill="none" xmlns="http://www.w3.org/2000/svg" xmlns:xlink="http://www.w3.org/1999/xlink">
	<desc>
			Created with Pixso.
	</desc>
	<defs>
		<clipPath id="clip162_3948">
			<rect id="moon" width="25.000000" height="25.000000" fill="white" fill-opacity="0"/>
		</clipPath>
	</defs>
	<rect id="moon" width="25.000000" height="25.000000" fill="#FFFFFF" fill-opacity="0"/>
	<g clip-path="url(#clip162_3948)">
		<path id="Vector (Stroke)" d="M10.2852 4.46643C9.43091 4.70203 8.61523 5.07349 7.87036 5.57117C6.5 6.48682 5.43188 7.78833 4.80127 9.31104C4.17041 10.8337 4.00537 12.5093 4.3269 14.1257C4.64844 15.7423 5.44214 17.2272 6.60767 18.3926C7.77295 19.558 9.25781 20.3517 10.8745 20.6732C12.491 20.9948 14.1665 20.8297 15.6892 20.1991C17.2119 19.5684 18.5134 18.5002 19.4292 17.1298C19.9268 16.3851 20.2981 15.5693 20.5337 14.7151C19.5005 15.2159 18.3579 15.4833 17.1877 15.4833C15.1533 15.4833 13.2021 14.6752 11.7637 13.2366C10.325 11.7981 9.51685 9.84692 9.51685 7.8125C9.51685 6.64246 9.78418 5.49988 10.2852 4.46643ZM6.71289 3.83887C8.42603 2.69434 10.4399 2.08337 12.5002 2.08337C12.9214 2.08337 13.3013 2.33716 13.4626 2.72644C13.6238 3.1156 13.5347 3.56372 13.2368 3.86157C12.189 4.90942 11.6001 6.33069 11.6001 7.8125C11.6001 9.29443 12.189 10.7156 13.2368 11.7634C14.2847 12.8113 15.7058 13.4 17.1877 13.4C18.6694 13.4 20.0908 12.8113 21.1387 11.7634C21.4365 11.4656 21.8845 11.3765 22.2737 11.5377C22.6631 11.6989 22.9167 12.0787 22.9167 12.5C22.9167 14.5603 22.3059 16.5742 21.1614 18.2872C20.0166 20.0002 18.3899 21.3353 16.4866 22.1238C14.583 22.9122 12.4885 23.1185 10.468 22.7166C8.44727 22.3146 6.59131 21.3225 5.13452 19.8657C3.67773 18.4089 2.68555 16.5529 2.28369 14.5322C1.88184 12.5116 2.08789 10.4171 2.87646 8.51379C3.66479 6.61035 5 4.98352 6.71289 3.83887Z" fill="#7F6CFE" fill-opacity="1.000000" fill-rule="evenodd"/>
	</g>
</svg>
