<svg width="25.000000" height="25.000000" viewBox="0 0 25 25" fill="none" xmlns="http://www.w3.org/2000/svg" xmlns:xlink="http://www.w3.org/1999/xlink">
	<desc>
			Created with Pixso.
	</desc>
	<defs>
		<clipPath id="clip169_4048">
			<rect id="settings" width="25.000000" height="25.000000" fill="white" fill-opacity="0"/>
		</clipPath>
	</defs>
	<rect id="settings" width="25.000000" height="25.000000" fill="#FFFFFF" fill-opacity="0"/>
	<g clip-path="url(#clip169_4048)">
		<path id="Vector" d="M12.2708 2.08325C11.7183 2.08325 11.1884 2.30273 10.7977 2.69348C10.407 3.08411 10.1875 3.61401 10.1875 4.16663L10.1875 4.35413C10.1871 4.71948 10.0907 5.07825 9.90785 5.39453C9.72502 5.71082 9.46223 5.97351 9.14583 6.15613L8.69792 6.41663C8.38121 6.59949 8.02196 6.69568 7.65625 6.69568C7.29056 6.69568 6.93129 6.59949 6.61458 6.41663L6.45833 6.33325C5.98027 6.0575 5.41234 5.98267 4.87917 6.12524C4.34601 6.26782 3.8912 6.61609 3.61458 7.09363L3.38542 7.4895C3.10965 7.96753 3.03484 8.53552 3.1774 9.06873C3.31998 9.60181 3.66827 10.0566 4.14583 10.3333L4.30208 10.4374C4.61696 10.6191 4.87877 10.8802 5.06151 11.1946C5.24425 11.5088 5.34155 11.8655 5.34375 12.2291L5.34375 12.7604C5.34521 13.1274 5.24963 13.4884 5.06671 13.8066C4.88379 14.125 4.62001 14.3893 4.30208 14.5729L4.14583 14.6666C3.66827 14.9432 3.31998 15.3979 3.1774 15.9312C3.03484 16.4644 3.10965 17.0322 3.38542 17.5104L3.61458 17.9061C3.8912 18.3838 4.34601 18.7321 4.87917 18.8746C5.41234 19.0172 5.98027 18.9424 6.45833 18.6666L6.61458 18.5833C6.93129 18.4004 7.29056 18.3042 7.65625 18.3042C8.02196 18.3042 8.38121 18.4004 8.69792 18.5833L9.14583 18.8436C9.46223 19.0264 9.72502 19.2889 9.90785 19.6053C10.0907 19.9216 10.1871 20.2804 10.1875 20.6458L10.1875 20.8333C10.1875 21.3857 10.407 21.9156 10.7977 22.3064C11.1884 22.6971 11.7183 22.9166 12.2708 22.9166L12.7292 22.9166C13.2817 22.9166 13.8116 22.6971 14.2023 22.3064C14.593 21.9156 14.8125 21.3857 14.8125 20.8333L14.8125 20.6458C14.8129 20.2804 14.9093 19.9216 15.0921 19.6053C15.275 19.2889 15.5378 19.0264 15.8542 18.8436L16.3021 18.5833C16.6188 18.4004 16.9781 18.3042 17.3438 18.3042C17.7095 18.3042 18.0687 18.4004 18.3854 18.5833L18.5417 18.6666C19.0197 18.9424 19.5877 19.0172 20.1208 18.8746C20.654 18.7321 21.1088 18.3838 21.3854 17.9061L21.6146 17.4999C21.8904 17.0219 21.9652 16.4539 21.8226 15.9208C21.68 15.3876 21.3317 14.9327 20.8542 14.6561L20.6979 14.5729C20.38 14.3893 20.1162 14.125 19.9333 13.8066C19.7504 13.4884 19.6548 13.1274 19.6562 12.7604L19.6562 12.2395C19.6548 11.8724 19.7504 11.5115 19.9333 11.1931C20.1162 10.8749 20.38 10.6106 20.6979 10.427L20.8542 10.3333C21.3317 10.0566 21.68 9.60181 21.8226 9.06873C21.9652 8.53552 21.8904 7.96753 21.6146 7.4895L21.3854 7.09363C21.1088 6.61609 20.654 6.26782 20.1208 6.12524C19.5877 5.98267 19.0197 6.0575 18.5417 6.33325L18.3854 6.41663C18.0687 6.59949 17.7095 6.69568 17.3438 6.69568C16.9781 6.69568 16.6188 6.59949 16.3021 6.41663L15.8542 6.15613C15.5378 5.97351 15.275 5.71082 15.0921 5.39453C14.9093 5.07825 14.8129 4.71948 14.8125 4.35413L14.8125 4.16663C14.8125 3.61401 14.593 3.08411 14.2023 2.69348C13.8116 2.30273 13.2817 2.08325 12.7292 2.08325L12.2708 2.08325Z" stroke="#7F6CFE" stroke-opacity="1.000000" stroke-width="2.000000" stroke-linejoin="round"/>
		<path id="Vector" d="M12.5 15.625C10.7741 15.625 9.375 14.2258 9.375 12.5C9.375 10.7742 10.7741 9.375 12.5 9.375C14.2259 9.375 15.625 10.7742 15.625 12.5C15.625 14.2258 14.2259 15.625 12.5 15.625Z" stroke="#7F6CFE" stroke-opacity="1.000000" stroke-width="2.000000" stroke-linejoin="round"/>
	</g>
</svg>
