<svg width="25.000000" height="25.000000" viewBox="0 0 25 25" fill="none" xmlns="http://www.w3.org/2000/svg" xmlns:xlink="http://www.w3.org/1999/xlink">
	<desc>
			Created with Pixso.
	</desc>
	<defs>
		<clipPath id="clip169_4039">
			<rect id="layout-dashboard" width="25.000000" height="25.000000" fill="white" fill-opacity="0"/>
		</clipPath>
	</defs>
	<rect id="layout-dashboard" width="25.000000" height="25.000000" fill="#FFFFFF" fill-opacity="0"/>
	<g clip-path="url(#clip169_4039)">
		<path id="Vector" d="M9.375 3.125C9.9503 3.125 10.4167 3.59143 10.4167 4.16663L10.4167 11.4584C10.4167 12.0337 9.9503 12.5 9.375 12.5L4.16667 12.5C3.59137 12.5 3.125 12.0337 3.125 11.4584L3.125 4.16663C3.125 3.59143 3.59137 3.125 4.16667 3.125L9.375 3.125Z" stroke="#7F6CFE" stroke-opacity="1.000000" stroke-width="2.000000" stroke-linejoin="round"/>
		<path id="Vector" d="M20.8333 3.125C21.4086 3.125 21.875 3.59143 21.875 4.16663L21.875 7.29163C21.875 7.86694 21.4086 8.33337 20.8333 8.33337L15.625 8.33337C15.0497 8.33337 14.5833 7.86694 14.5833 7.29163L14.5833 4.16663C14.5833 3.59143 15.0497 3.125 15.625 3.125L20.8333 3.125Z" stroke="#7F6CFE" stroke-opacity="1.000000" stroke-width="2.000000" stroke-linejoin="round"/>
		<path id="Vector" d="M20.8333 12.5C21.4086 12.5 21.875 12.9664 21.875 13.5416L21.875 20.8334C21.875 21.4087 21.4086 21.875 20.8333 21.875L15.625 21.875C15.0497 21.875 14.5833 21.4087 14.5833 20.8334L14.5833 13.5416C14.5833 12.9664 15.0497 12.5 15.625 12.5L20.8333 12.5Z" stroke="#7F6CFE" stroke-opacity="1.000000" stroke-width="2.000000" stroke-linejoin="round"/>
		<path id="Vector" d="M9.375 16.6666C9.9503 16.6666 10.4167 17.1331 10.4167 17.7083L10.4167 20.8333C10.4167 21.4086 9.9503 21.875 9.375 21.875L4.16667 21.875C3.59137 21.875 3.125 21.4086 3.125 20.8333L3.125 17.7083C3.125 17.1331 3.59137 16.6666 4.16667 16.6666L9.375 16.6666Z" stroke="#7F6CFE" stroke-opacity="1.000000" stroke-width="2.000000" stroke-linejoin="round"/>
	</g>
</svg>
