<svg width="25.000000" height="25.000000" viewBox="0 0 25 25" fill="none" xmlns="http://www.w3.org/2000/svg" xmlns:xlink="http://www.w3.org/1999/xlink">
	<desc>
			Created with Pixso.
	</desc>
	<defs>
		<clipPath id="clip169_4045">
			<rect id="bar-chart-big" width="25.000000" height="25.000000" fill="white" fill-opacity="0"/>
		</clipPath>
	</defs>
	<rect id="bar-chart-big" width="25.000000" height="25.000000" fill="#FFFFFF" fill-opacity="0"/>
	<g clip-path="url(#clip169_4045)">
		<path id="Vector" d="M3.125 3.125L3.125 21.875L21.875 21.875" stroke="#7F6CFE" stroke-opacity="1.000000" stroke-width="2.000000" stroke-linejoin="round" stroke-linecap="round"/>
		<path id="Vector" d="M10.4167 10.4166C10.992 10.4166 11.4583 10.8831 11.4583 11.4583L11.4583 16.6666C11.4583 17.2419 10.992 17.7083 10.4167 17.7083L8.33333 17.7083C7.75803 17.7083 7.29166 17.2419 7.29166 16.6666L7.29166 11.4583C7.29166 10.8831 7.75803 10.4166 8.33333 10.4166L10.4167 10.4166Z" stroke="#7F6CFE" stroke-opacity="1.000000" stroke-width="2.000000" stroke-linejoin="round"/>
		<path id="Vector" d="M18.75 5.20837C19.3253 5.20837 19.7917 5.6748 19.7917 6.25L19.7917 16.6667C19.7917 17.2419 19.3253 17.7084 18.75 17.7084L16.6667 17.7084C16.0914 17.7084 15.625 17.2419 15.625 16.6667L15.625 6.25C15.625 5.6748 16.0914 5.20837 16.6667 5.20837L18.75 5.20837Z" stroke="#7F6CFE" stroke-opacity="1.000000" stroke-width="2.000000" stroke-linejoin="round"/>
	</g>
</svg>
