<svg width="25.000000" height="25.000000" viewBox="0 0 25 25" fill="none" xmlns="http://www.w3.org/2000/svg" xmlns:xlink="http://www.w3.org/1999/xlink">
	<desc>
			Created with Pixso.
	</desc>
	<defs>
		<clipPath id="clip3_12575">
			<rect id="sun" width="25.000000" height="25.000000" fill="white" fill-opacity="0"/>
		</clipPath>
	</defs>
	<rect id="sun" width="25.000000" height="25.000000" fill="#FFFFFF" fill-opacity="0"/>
	<g clip-path="url(#clip3_12575)">
		<path id="Vector (Stroke)" d="M12.5 9.375C10.7742 9.375 9.375 10.774 9.375 12.5C9.375 14.2258 10.7742 15.625 12.5 15.625C14.2261 15.625 15.625 14.2258 15.625 12.5C15.625 10.774 14.2261 9.375 12.5 9.375ZM7.29175 12.5C7.29175 9.62354 9.62354 7.29163 12.5 7.29163C15.3765 7.29163 17.7085 9.62354 17.7085 12.5C17.7085 15.3765 15.3765 17.7083 12.5 17.7083C9.62354 17.7083 7.29175 15.3765 7.29175 12.5Z" fill="#7F6CFE" fill-opacity="1.000000" fill-rule="evenodd"/>
		<path id="Vector (Stroke)" d="M12.5 1.04163C13.0752 1.04163 13.5415 1.50806 13.5415 2.08325L13.5415 4.16663C13.5415 4.74194 13.0752 5.20825 12.5 5.20825C11.9246 5.20825 11.4583 4.74194 11.4583 4.16663L11.4583 2.08325C11.4583 1.50806 11.9246 1.04163 12.5 1.04163Z" fill="#7F6CFE" fill-opacity="1.000000" fill-rule="evenodd"/>
		<path id="Vector (Stroke)" d="M12.5 19.7916C13.0752 19.7916 13.5415 20.2581 13.5415 20.8333L13.5415 22.9166C13.5415 23.4919 13.0752 23.9583 12.5 23.9583C11.9246 23.9583 11.4583 23.4919 11.4583 22.9166L11.4583 20.8333C11.4583 20.2581 11.9246 19.7916 12.5 19.7916Z" fill="#7F6CFE" fill-opacity="1.000000" fill-rule="evenodd"/>
		<path id="Vector (Stroke)" d="M4.39893 4.3988C4.80566 3.99207 5.46509 3.99207 5.87207 4.3988L7.34082 5.86755C7.74756 6.27441 7.74756 6.93396 7.34082 7.3407C6.93384 7.74756 6.27441 7.74756 5.86768 7.3407L4.39893 5.87195C3.99194 5.46521 3.99194 4.80566 4.39893 4.3988Z" fill="#7F6CFE" fill-opacity="1.000000" fill-rule="evenodd"/>
		<path id="Vector (Stroke)" d="M17.6594 17.6592C18.0662 17.2524 18.7256 17.2524 19.1326 17.6592L20.6013 19.1279C21.0081 19.5348 21.0081 20.1943 20.6013 20.6011C20.1943 21.0079 19.5349 21.0079 19.1282 20.6011L17.6594 19.1323C17.2524 18.7256 17.2524 18.066 17.6594 17.6592Z" fill="#7F6CFE" fill-opacity="1.000000" fill-rule="evenodd"/>
		<path id="Vector (Stroke)" d="M1.04175 12.5C1.04175 11.9248 1.50806 11.4584 2.0835 11.4584L4.16675 11.4584C4.74194 11.4584 5.2085 11.9248 5.2085 12.5C5.2085 13.0753 4.74194 13.5417 4.16675 13.5417L2.0835 13.5417C1.50806 13.5417 1.04175 13.0753 1.04175 12.5Z" fill="#7F6CFE" fill-opacity="1.000000" fill-rule="evenodd"/>
		<path id="Vector (Stroke)" d="M19.7917 12.5C19.7917 11.9248 20.2581 11.4584 20.8335 11.4584L22.9167 11.4584C23.4919 11.4584 23.9585 11.9248 23.9585 12.5C23.9585 13.0753 23.4919 13.5417 22.9167 13.5417L20.8335 13.5417C20.2581 13.5417 19.7917 13.0753 19.7917 12.5Z" fill="#7F6CFE" fill-opacity="1.000000" fill-rule="evenodd"/>
		<path id="Vector (Stroke)" d="M7.34082 17.6592C7.74756 18.066 7.74756 18.7256 7.34082 19.1323L5.87207 20.6011C5.46509 21.0079 4.80566 21.0079 4.39893 20.6011C3.99194 20.1943 3.99194 19.5348 4.39893 19.1279L5.86768 17.6592C6.27441 17.2524 6.93384 17.2524 7.34082 17.6592Z" fill="#7F6CFE" fill-opacity="1.000000" fill-rule="evenodd"/>
		<path id="Vector (Stroke)" d="M20.6013 4.3988C21.0081 4.80566 21.0081 5.46521 20.6013 5.87195L19.1326 7.3407C18.7256 7.74756 18.0662 7.74756 17.6594 7.3407C17.2524 6.93396 17.2524 6.27441 17.6594 5.86755L19.1282 4.3988C19.5349 3.99207 20.1943 3.99207 20.6013 4.3988Z" fill="#7F6CFE" fill-opacity="1.000000" fill-rule="evenodd"/>
	</g>
</svg>
